:FULLY-SPECIFIED
:FORCE-ALL-JOINTS-BE-3DOF
:DEGREES
485
root 10.7729 17.191 31.7785 4.80255 4.35015 5.05421
lfemur 11.0943 1.93966 -29.3448
ltibia 3.91447 -0 0
lfoot -15.6291 4.49906 -0.00471996
ltoes 2.5539 -0 0
rfemur -39.7464 11.6584 8.24064
rtibia 33.7703 -0 0
rfoot -26.5038 -8.6743 -0.0332603
rtoes -2.01983 0 0
lowerback -5.76579 -4.68151 -5.40819
upperback -0.24499 -5.91546 1.07305
thorax 3.64674 -3.043 3.54372
lowerneck -22.3515 -2.59285 -10.1469
upperneck 25.2522 -3.32335 11.0371
head 12.4443 -1.01134 5.4113
lclavicle 2.62644e-14 2.22639e-14 0
lhumerus -14.8311 -22.5621 86.4353
lradius 32.9982 -0 0
lwrist 4.65448 0 0
lhand -14.172 -25.8883 0.0070669
lfingers 7.12502 -0 0
lthumb 11.9632 3.74796 0.00651825
rclavicle 2.62644e-14 2.22639e-14 0
rhumerus -50.0149 7.96567 -86.0843
rradius 35.7202 -0 0
rwrist -17.7607 0 0
rhand -29.212 -24.5613 0.0145292
rfingers 7.12502 -0 0
rthumb -2.55642 -54.5251 0.0139999
486
root 10.7724 17.1828 31.9071 4.79784 4.4417 5.09651
lfemur 11.8305 1.86243 -29.3349
ltibia 3.29821 -0 0
lfoot -15.6893 4.50877 -0.0036715
ltoes 2.57349 -0 0
rfemur -40.2017 12.0552 7.9756
rtibia 32.6841 -0 0
rfoot -26.972 -8.63658 -0.0261609
rtoes -1.53443 0 0
lowerback -5.78537 -4.76361 -5.45438
upperback -0.207643 -6.02047 1.07201
thorax 3.7116 -3.09799 3.5578
lowerneck -22.3808 -2.56034 -10.1061
upperneck 25.2693 -3.29619 11.0565
head 12.453 -0.992246 5.4177
lclavicle 2.62644e-14 2.22639e-14 0
lhumerus -14.6176 -22.842 86.3426
lradius 33.354 -0 0
lwrist 4.94393 0 0
lhand -14.2376 -25.9478 0.00638264
lfingers 7.12502 -0 0
lthumb 11.8999 3.69224 0.00586364
rclavicle 2.62644e-14 2.22639e-14 0
rhumerus -50.0924 7.9062 -86.0191
rradius 35.7709 -0 0
rwrist -17.9127 0 0
rhand -29.1754 -24.3384 0.0125416
rfingers 7.12502 -0 0
rthumb -2.52114 -54.3027 0.0120846
487
root 10.772 17.1745 32.0357 4.79321 4.52893 5.13792
lfemur 12.5323 1.79025 -29.3282
ltibia 2.71348 -0 0
lfoot -15.7472 4.51733 -0.00271617
ltoes 2.5943 -0 0
rfemur -40.6411 12.4275 7.71884
rtibia 31.6613 -0 0
rfoot -27.417 -8.60271 -0.019514
rtoes -1.07416 0 0
lowerback -5.8034 -4.8421 -5.49905
upperback -0.172264 -6.12082 1.07067
thorax 3.77282 -3.15054 3.57121
lowerneck -22.4088 -2.52918 -10.0671
upperneck 25.2858 -3.26999 11.0745
head 12.4613 -0.97395 5.4237
lclavicle 2.62644e-14 2.22639e-14 0
lhumerus -14.4102 -23.1073 86.2522
lradius 33.691 -0 0
lwrist 5.21732 0 0
lhand -14.3004 -26.0046 0.00563546
lfingers 7.12502 -0 0
lthumb 11.8393 3.63909 0.0051563
rclavicle 2.62644e-14 2.22639e-14 0
rhumerus -50.1678 7.84946 -85.9573
rradius 35.8187 -0 0
rwrist -18.0565 0 0
rhand -29.1409 -24.1278 0.0105341
rfingers 7.12502 -0 0
rthumb -2.48781 -54.0926 0.0101503
488
root 10.7715 17.1663 32.1643 4.78862 4.61157 5.17858
lfemur 13.1975 1.72379 -29.325
ltibia 2.16264 -0 0
lfoot -15.8025 4.52452 -0.00187266
ltoes 2.61522 -0 0
rfemur -41.064 12.7735 7.47145
rtibia 30.7079 -0 0
rfoot -27.8369 -8.57329 -0.0135095
rtoes -0.640988 0 0
lowerback -5.81968 -4.91679 -5.54226
upperback -0.139015 -6.21629 1.06898
thorax 3.83005 -3.20053 3.58393
lowerneck -22.4355 -2.49942 -10.0302
upperneck 25.3019 -3.24475 11.0911
head 12.4692 -0.956484 5.42928
lclavicle 2.62644e-14 2.22639e-14 0
lhumerus -14.2089 -23.357 86.1642
lradius 34.0077 -0 0
lwrist 5.47324 0 0
lhand -14.3604 -26.0585 0.00482835
lfingers 7.12502 -0 0
lthumb 11.7815 3.58867 0.00439968
rclavicle 2.62644e-14 2.22639e-14 0
rhumerus -50.2414 7.79555 -85.8991
rradius 35.8631 -0 0
rwrist -18.1915 0 0
rhand -29.1086 -23.9306 0.00854043
rfingers 7.12502 -0 0
rthumb -2.45657 -53.8958 0.00822928
489
root 10.7711 17.1581 32.2929 4.78403 4.68934 5.21864
lfemur 13.8244 1.66369 -29.3254
ltibia 1.64808 -0 0
lfoot -15.8553 4.53016 -0.00115988
ltoes 2.63809 -0 0
rfemur -41.4694 13.0914 7.23449
rtibia 29.8302 -0 0
rfoot -28.2303 -8.54891 -0.00834227
rtoes -0.236845 0 0
lowerback -5.83403 -4.98751 -5.58405
upperback -0.108056 -6.30664 1.06689
thorax 3.88299 -3.24783 3.59594
lowerneck -22.4607 -2.47113 -9.9955
upperneck 25.3174 -3.22046 11.1061
head 12.4768 -0.939875 5.43437
lclavicle 2.62644e-14 2.22639e-14 0
lhumerus -14.0137 -23.5901 86.0788
lradius 34.3025 -0 0
lwrist 5.71026 0 0
lhand -14.4175 -26.1094 0.00396434
lfingers 7.12502 -0 0
lthumb 11.7264 3.54112 0.0035973
rclavicle 2.62644e-14 2.22639e-14 0
rhumerus -50.3132 7.7446 -85.8447
rradius 35.9039 -0 0
rwrist -18.3169 0 0
rhand -29.0786 -23.7478 0.00659523
rfingers 7.12502 -0 0
rthumb -2.4276 -53.7134 0.00635495
